<svg width="26" height="26" viewBox="0 0 26 26" fill="none" xmlns="http://www.w3.org/2000/svg">
<path d="M3.00626 0C1.3468 0 0 1.3468 0 3.00626V22.2463C0 23.9058 1.3468 25.2526 3.00626 25.2526H22.2463C23.9058 25.2526 25.2526 23.9058 25.2526 22.2463V3.00626C25.2526 1.3468 23.9058 0 22.2463 0H3.00626ZM4.81001 8.41753H8.85672C9.29564 8.41753 11.6704 8.38765 11.6704 10.5642C11.6704 11.7186 10.8825 12.109 10.5278 12.2834C11.0569 12.4517 12.025 12.9389 12.025 14.43C12.025 16.7328 9.38526 16.8351 9.03052 16.8351H4.81001V8.41753ZM15.0313 8.41753H19.2401V9.62003H15.0313V8.41753ZM6.61377 9.87838V11.8512H8.55022C8.81477 11.8512 9.69166 11.7064 9.69166 10.8225C9.69166 9.93869 8.54961 9.87838 8.37525 9.87838H6.61377ZM17.2742 10.2213C19.6191 10.2213 20.2559 12.0489 20.3521 12.4818C20.4423 12.9208 20.4426 13.3057 20.4426 13.8288H15.6924C15.6924 14.3519 15.9696 15.5304 17.3705 15.5304C17.7433 15.5304 18.0192 15.4405 18.3018 15.2662C18.5784 15.0918 18.6754 14.9226 18.7656 14.7483H20.3463C20.0697 15.4397 19.6971 15.9638 19.1379 16.3125C18.5787 16.6612 17.9294 16.8351 17.1838 16.8351C16.7148 16.8351 16.2518 16.7452 15.7829 16.5708C15.4101 16.3965 15.0378 16.1377 14.7612 15.8792C14.4846 15.6146 14.2982 15.2657 14.1118 14.8328C13.9254 14.4841 13.8288 13.9611 13.8288 13.5282C13.8288 13.0953 14.0034 10.2213 17.2742 10.2213ZM17.2742 11.4414C15.9154 11.4414 15.6924 12.7464 15.6924 12.8306H18.6752C18.579 12.3977 18.1881 11.4414 17.2742 11.4414ZM6.61377 13.0537V15.3742H8.6289C8.80266 15.3742 10.0287 15.3205 10.0287 14.2562C10.0287 13.198 9.06541 13.0537 8.6289 13.0537H6.61377Z" fill="white"/>
</svg>
