<svg width="27" height="26" viewBox="0 0 27 26" fill="none" xmlns="http://www.w3.org/2000/svg">
<path d="M26.1675 13.7289C26.0992 14.2207 26.0627 14.7171 25.9625 15.1999C24.9606 20.097 22.1174 23.4231 17.4327 25.178C16.827 25.4057 16.4308 25.1188 16.4308 24.4722C16.4308 23.4885 16.4308 22.5001 16.4308 21.5164C16.4308 20.0682 16.3625 19.8133 15.6338 18.693C16.3352 18.5245 17.0684 18.4014 17.7697 18.1782C19.8919 17.4951 21.0396 15.9696 21.331 13.8018C21.4282 13.0346 21.448 12.2595 21.3902 11.4883C21.2997 10.5406 20.9051 9.64767 20.2654 8.94263C20.2195 8.90215 20.1871 8.84861 20.1724 8.7892C20.1578 8.72979 20.1616 8.66737 20.1834 8.61019C20.4919 7.59349 20.4486 6.50231 20.0604 5.51327C20.0103 5.36299 19.9193 5.33126 19.7781 5.32671C19.1615 5.33778 18.5562 5.49379 18.0111 5.78212C17.5557 6.01438 17.1003 6.30581 16.6449 6.55173C16.5247 6.61504 16.3872 6.63749 16.2532 6.61555C14.2677 6.10778 12.1863 6.10778 10.2008 6.61555C10.129 6.63595 10.0535 6.63943 9.98003 6.626C9.90659 6.61258 9.83722 6.58243 9.77728 6.53795C9.04166 6.01432 8.21794 5.62725 7.34538 5.39497C7.10718 5.34573 6.86452 5.32124 6.62128 5.32204C6.56853 5.3281 6.51809 5.34722 6.4744 5.37741C6.43072 5.40759 6.39514 5.44807 6.37081 5.49526C5.97382 6.48024 5.92562 7.57114 6.23418 8.58729C6.25845 8.63894 6.26623 8.69695 6.25645 8.75318C6.24667 8.8094 6.21982 8.8613 6.17954 8.90172C5.38493 9.81346 4.95229 10.985 4.96359 12.1943C4.94051 13.1311 5.07285 14.0651 5.35524 14.9586C5.97005 16.7802 7.29073 17.8232 9.09871 18.3059C9.64976 18.4562 10.219 18.5427 10.7928 18.6657C10.7928 18.6657 10.7928 18.7019 10.7928 18.7202C10.4225 19.1293 10.1789 19.6373 10.0915 20.1822C10.0841 20.2288 10.0673 20.2731 10.0423 20.313C10.0172 20.3529 9.98442 20.3874 9.94578 20.4144C9.5495 20.6056 9.11518 20.7048 8.67518 20.7048C8.23518 20.7048 7.80086 20.6056 7.40459 20.4144C6.93993 20.1516 6.55695 19.7653 6.29794 19.2985C6.1118 18.9567 5.85165 18.6607 5.53649 18.4322C5.22133 18.2037 4.85912 18.0485 4.4763 17.9779C4.2859 17.9559 4.09309 17.9683 3.90704 18.0144C3.71121 18.0599 3.66567 18.2058 3.79319 18.3606C3.89846 18.4925 4.02461 18.6063 4.16662 18.6975C4.79504 19.0874 5.27573 19.6754 5.53285 20.3688C6.09301 21.8033 7.20876 22.3134 8.6433 22.3134C9.09871 22.3134 9.53135 22.2452 10.0095 22.2042C10.0095 22.2543 10.0095 22.327 10.0095 22.3999C10.0095 23.0648 10.0095 23.7298 10.0095 24.3992C10.0095 25.0687 9.62244 25.383 8.97575 25.137C4.51729 23.4657 1.61633 20.3416 0.596208 15.6873C-0.451235 10.8964 0.910441 6.72937 4.48085 3.39121C5.72833 2.20514 7.21053 1.29356 8.83187 0.715459C10.4532 0.13736 12.1777 -0.0944726 13.8942 0.03479C16.751 0.174889 19.4802 1.26058 21.6525 3.12126C23.8248 4.98193 25.3169 7.51193 25.8942 10.3133C26.0081 10.837 26.0491 11.3791 26.1219 11.9119C26.1219 11.9848 26.1538 12.0576 26.1675 12.1305V13.7289Z" fill="#F2F2F2"/>
<path d="M9.62692 21.2704L9.37189 21.0427C9.46752 20.9653 9.55405 20.8469 9.65879 20.8241C9.76354 20.8013 9.83185 20.9289 9.91838 20.9835L9.62692 21.2704Z" fill="#F2F2F2"/>
<path d="M7.65958 21.2523L7.34079 20.9381C7.4091 20.8789 7.50018 20.7605 7.54117 20.7787C7.65978 20.8365 7.77007 20.91 7.86907 20.9973L7.65958 21.2523Z" fill="#F2F2F2"/>
<path d="M8.64787 20.8606L8.92112 21.1201C8.83003 21.1839 8.74351 21.2978 8.65243 21.3069C8.56134 21.316 8.47026 21.2022 8.37918 21.143L8.64787 20.8606Z" fill="#F2F2F2"/>
<path d="M6.96739 20.5599C6.89908 20.5963 6.79434 20.6784 6.76701 20.6602C6.65661 20.5752 6.55985 20.4738 6.4801 20.3595C6.4801 20.3595 6.60306 20.2048 6.62128 20.2139C6.74879 20.2822 6.86265 20.3732 6.98561 20.4552L6.96739 20.5599Z" fill="#F2F2F2"/>
<path d="M6.06572 19.9589C5.99153 19.8528 5.92749 19.7399 5.87445 19.6218C5.87445 19.5945 5.97009 19.5262 6.02018 19.4761C6.10794 19.5641 6.18723 19.6601 6.257 19.763C6.257 19.7994 6.18868 19.8861 6.15225 19.9453L6.06572 19.9589Z" fill="#F2F2F2"/>
<path d="M5.81978 19.048C5.69681 19.1208 5.61484 19.1937 5.59662 19.18C5.51093 19.1126 5.43573 19.0328 5.37347 18.9432C5.37347 18.9432 5.46456 18.8157 5.47822 18.8202C5.59591 18.8902 5.70992 18.9662 5.81978 19.048Z" fill="#F2F2F2"/>
<path d="M5.00002 18.6608L4.83151 18.4696C4.88161 18.4377 4.94536 18.3647 4.97724 18.3784C5.05462 18.4107 5.11993 18.4665 5.16396 18.5378C5.16396 18.5743 5.12753 18.6563 5.10931 18.7155L5.00002 18.6608Z" fill="#F2F2F2"/>
</svg>
