<svg width="30" height="30" viewBox="0 0 30 30" fill="none" xmlns="http://www.w3.org/2000/svg">
<path d="M9.05273 0.5625C4.39234 0.5625 0.5625 4.3872 0.5625 9.05273V20.9473C0.5625 25.6077 4.3872 29.4375 9.05273 29.4375H20.9473C25.6077 29.4375 29.4375 25.6128 29.4375 20.9473V9.05273C29.4375 4.39234 25.6128 0.5625 20.9473 0.5625H9.05273ZM9.05273 3.1875H20.9473C24.1926 3.1875 26.8125 5.80737 26.8125 9.05273V20.9473C26.8125 24.1926 24.1926 26.8125 20.9473 26.8125H9.05273C5.80737 26.8125 3.1875 24.1926 3.1875 20.9473V9.05273C3.1875 5.80737 5.80737 3.1875 9.05273 3.1875ZM22.752 6.05859C22.0906 6.05859 21.5625 6.58666 21.5625 7.24805C21.5625 7.90943 22.0906 8.4375 22.752 8.4375C23.4133 8.4375 23.9414 7.90943 23.9414 7.24805C23.9414 6.58666 23.4133 6.05859 22.752 6.05859ZM15 7.125C10.6677 7.125 7.125 10.6677 7.125 15C7.125 19.3323 10.6677 22.875 15 22.875C19.3323 22.875 22.875 19.3323 22.875 15C22.875 10.6677 19.3323 7.125 15 7.125ZM15 9.75C17.9172 9.75 20.25 12.0828 20.25 15C20.25 17.9172 17.9172 20.25 15 20.25C12.0828 20.25 9.75 17.9172 9.75 15C9.75 12.0828 12.0828 9.75 15 9.75Z" fill="white"/>
</svg>
