<svg width="90" height="90" viewBox="0 0 90 90" fill="none" xmlns="http://www.w3.org/2000/svg">
<mask id="mask0_36_57" style="mask-type:luminance" maskUnits="userSpaceOnUse" x="0" y="0" width="90" height="90">
<path d="M68.6115 0.518097H21.3884C9.88221 0.518097 0.554626 9.84568 0.554626 21.3518V68.575C0.554626 80.0811 9.88221 89.4087 21.3884 89.4087H68.6115C80.1177 89.4087 89.4452 80.0811 89.4452 68.575V21.3518C89.4452 9.84568 80.1177 0.518097 68.6115 0.518097Z" fill="white"/>
</mask>
<g mask="url(#mask0_36_57)">
<path d="M21.3884 0.518097C9.8822 0.518097 0.554626 9.84567 0.554626 21.3518V68.575C0.554626 80.0811 9.8822 89.4087 21.3884 89.4087H59.0488C58.4311 87.5882 57.9474 84.7052 57.6752 81.4145C57.4408 78.5839 57.363 75.4522 57.4929 72.4316C57.4578 71.9851 57.4366 71.6948 57.4366 71.6948C57.4366 71.6948 56.7859 67.3163 55.8495 63.7193C55.4349 62.1228 54.963 60.679 54.4675 59.8422C54.2123 59.4106 54.4953 57.6369 55.2074 55.0101C55.6241 55.7292 57.3821 58.806 57.7353 59.7977C58.1328 60.9186 58.2162 61.2398 58.2162 61.2398C58.2162 61.2398 57.2519 56.2841 55.6699 53.3924C56.0168 52.2233 56.4311 50.9312 56.8998 49.55C57.4477 50.5107 58.6933 52.717 59.1433 53.7625C59.1849 53.8594 59.2224 53.9504 59.2499 54.0254C59.3138 54.2066 59.3676 54.3605 59.4158 54.5014C59.6697 55.2369 59.7315 55.4709 59.7315 55.4709C59.7315 55.4709 59.6374 54.9896 59.4624 54.2473C59.3884 53.9337 59.2964 53.565 59.194 53.1722C58.7953 51.6413 58.1898 49.6371 57.4144 48.0666C59.4047 37.7212 65.8108 24.175 72.7123 16.8618C73.3071 16.2321 73.9047 15.6426 74.5033 15.1113C78.5377 11.5348 82.6257 10.3267 86.0018 13.3341C88.4442 15.5105 89.4435 18.5166 89.4452 21.977V21.3518C89.4452 9.84567 80.1176 0.518097 68.6115 0.518097H21.3884Z" fill="#D9D9D9"/>
<path d="M21.3884 0.518097C9.8822 0.518097 0.554626 9.84567 0.554626 21.3518V68.575C0.554626 80.0811 9.8822 89.4087 21.3884 89.4087H59.0488C58.4311 87.5882 57.9474 84.7052 57.6752 81.4145C57.4408 78.5839 57.363 75.4522 57.4929 72.4316C57.4578 71.9851 57.4366 71.6948 57.4366 71.6948C57.4366 71.6948 56.7859 67.3163 55.8495 63.7193C55.4349 62.1228 54.963 60.679 54.4675 59.8422C54.2123 59.4106 54.4953 57.6369 55.2074 55.0101C55.6241 55.7292 57.3821 58.806 57.7353 59.7977C58.1328 60.9186 58.2162 61.2398 58.2162 61.2398C58.2162 61.2398 57.2519 56.2841 55.6699 53.3924C56.0168 52.2233 56.4311 50.9312 56.8998 49.55C57.4477 50.5107 58.6933 52.717 59.1433 53.7625C59.1849 53.8594 59.2224 53.9504 59.2499 54.0254C59.3138 54.2066 59.3676 54.3605 59.4158 54.5014C59.6697 55.2369 59.7315 55.4709 59.7315 55.4709C59.7315 55.4709 59.6374 54.9896 59.4624 54.2473C59.3884 53.9337 59.2964 53.565 59.194 53.1722C58.7953 51.6413 58.1898 49.6371 57.4144 48.0666C59.4047 37.7212 65.8108 24.175 72.7123 16.8618C73.3071 16.2321 73.9047 15.6426 74.5033 15.1113C78.5377 11.5348 82.6257 10.3267 86.0018 13.3341C88.4442 15.5105 89.4435 18.5166 89.4452 21.977V21.3518C89.4452 9.84567 80.1176 0.518097 68.6115 0.518097H21.3884Z" fill="url(#paint0_linear_36_57)"/>
<path d="M68.6116 0.518341C80.1177 0.518341 89.4453 9.84592 89.4453 21.3521V68.5752C89.4453 80.0813 80.1177 89.409 68.6116 89.409H30.9511C31.5688 87.5884 32.0525 84.7054 32.3248 81.4147C32.5591 78.5841 32.6369 75.4524 32.507 72.4319C32.5421 71.9854 32.5633 71.6951 32.5633 71.6951C32.5633 71.6951 33.214 67.3165 34.1505 63.7196C34.5651 62.123 35.037 60.6792 35.5325 59.8424C35.7877 59.4108 35.5047 57.6372 34.7925 55.0104C34.3758 55.7295 32.6178 58.8063 32.2647 59.798C31.8671 60.9188 31.7838 61.24 31.7838 61.24C31.7838 61.24 32.748 56.2844 34.33 53.3926C33.9831 52.2235 33.5689 50.9315 33.1001 49.5502C32.5522 50.511 31.3067 52.7173 30.8567 53.7628C30.815 53.8597 30.7775 53.9506 30.7501 54.0256C30.6862 54.2069 30.6324 54.3607 30.5841 54.5017C30.3303 55.2371 30.2685 55.4711 30.2685 55.4711C30.2685 55.4711 30.3626 54.9899 30.5376 54.2475C30.6115 53.934 30.7035 53.5652 30.806 53.1725C31.2046 51.6416 31.8102 49.6374 32.5855 48.0668C30.5952 37.7215 24.1892 24.1752 17.2877 16.862C16.6929 16.2323 16.0953 15.6428 15.4967 15.1115C11.4622 11.535 7.37428 10.327 3.99817 13.3344C1.55576 15.5108 0.556435 18.5168 0.554695 21.9772V21.3521C0.554695 9.84592 9.88231 0.518341 21.3884 0.518341H68.6116Z" fill="url(#paint1_linear_36_57)"/>
<path d="M86.0016 13.3344C82.6255 10.3269 78.5376 11.535 74.5031 15.1115C73.9045 15.6428 73.3069 16.2323 72.7121 16.862C65.8106 24.1752 59.4046 37.7215 57.4143 48.0668C58.1896 49.6373 58.7952 51.6415 59.1938 53.1725C59.2962 53.5652 59.3882 53.9339 59.4622 54.2475C59.6372 54.9899 59.7313 55.4711 59.7313 55.4711C59.7313 55.4711 59.6695 55.2371 59.4157 54.5017C59.3674 54.3607 59.3136 54.2069 59.2497 54.0256C59.2223 53.9506 59.1848 53.8596 59.1431 53.7628C58.6931 52.7172 57.4476 50.511 56.8997 49.5502C56.4309 50.9314 56.0167 52.2235 55.6698 53.3926C57.2517 56.2843 58.216 61.24 58.216 61.24C58.216 61.24 58.1327 60.9188 57.7351 59.7979C57.382 58.8063 55.6239 55.7295 55.2073 55.0103C54.4951 57.6371 54.2121 59.4108 54.4673 59.8424C54.9628 60.6792 55.4347 62.123 55.8493 63.7195C56.7858 67.3165 57.4365 71.695 57.4365 71.695C57.4365 71.695 57.4577 71.9853 57.4927 72.4319C57.3629 75.4524 57.4406 78.5841 57.675 81.4147C57.9851 85.1616 58.5691 88.3808 59.3136 90.1034L59.8188 89.828C58.7257 86.4342 58.2816 81.9862 58.4761 76.8563C58.7702 69.0155 60.5768 59.5597 63.9144 49.7043C69.5534 34.8267 77.3771 22.8898 84.5377 17.1892C78.0112 23.0766 69.178 42.1337 66.5339 49.1908C63.5734 57.0934 61.4751 64.5095 60.2108 71.6145C62.3925 64.9536 69.4464 62.0903 69.4464 62.0903C69.4464 62.0903 72.9062 57.8285 76.9493 51.7395C74.5274 52.2912 70.5506 53.2357 69.2183 53.7947C67.2537 54.618 66.7242 54.8989 66.7242 54.8989C66.7242 54.8989 73.0889 51.0273 78.5494 49.2745C86.0592 37.46 94.2407 20.676 86.0016 13.3344Z" fill="#003B57"/>
<path d="M10.4577 17.5326C9.39408 17.5326 8.52921 17.8432 7.86617 18.4642C7.20314 19.0858 6.86678 19.9006 6.86678 20.8988C6.86678 21.4162 6.95032 21.8879 7.11491 22.3202C7.2795 22.7533 7.53561 23.1545 7.87996 23.5171C8.22431 23.8799 8.91355 24.3729 9.94076 24.9996C11.2012 25.7588 12.0261 26.375 12.422 26.8561C12.8182 27.3368 13.0147 27.8406 13.0147 28.3659C13.0147 29.0691 12.7801 29.6304 12.298 30.0524C11.8149 30.4745 11.169 30.6849 10.3681 30.6849C9.52336 30.6849 8.78754 30.391 8.15566 29.8076C7.52377 29.2233 7.20481 28.4504 7.19762 27.4818H6.80476V30.9977H7.19762C7.31755 30.6648 7.48353 30.4944 7.70075 30.4944C7.80527 30.4944 8.05007 30.5656 8.43136 30.6984C9.35905 31.0241 10.1208 31.1813 10.7196 31.1813C11.7515 31.1813 12.6324 30.8247 13.3662 30.1C14.099 29.3756 14.469 28.5019 14.469 27.4818C14.469 26.6908 14.2248 25.9871 13.7453 25.3736C13.2659 24.7594 12.3335 24.045 10.9402 23.2247C9.74117 22.5139 8.9629 21.935 8.60365 21.4837C8.24389 21.033 8.05916 20.5346 8.05916 19.9876C8.05916 19.3959 8.27945 18.9207 8.71393 18.5663C9.14842 18.2115 9.71774 18.0358 10.4301 18.0358C11.2318 18.0358 11.9001 18.2706 12.4289 18.7431C12.9571 19.2164 13.2626 19.8723 13.3525 20.7152H13.7453V17.6686H13.38C13.3354 17.8239 13.294 17.9232 13.256 17.9678C13.219 18.0122 13.1479 18.0358 13.0423 18.0358C12.9152 18.0358 12.6886 17.983 12.3669 17.8794C11.6776 17.6503 11.0422 17.5326 10.4577 17.5326ZM23.2981 17.5326C22.0021 17.5326 20.8254 17.834 19.7623 18.437C18.6976 19.039 17.8548 19.8749 17.2328 20.9396C16.6112 22.0042 16.3024 23.135 16.3024 24.3399C16.3024 25.9588 16.8394 27.401 17.9221 28.6651C19.0053 29.9284 20.3033 30.7156 21.8094 31.0181C22.1537 31.1951 22.6464 31.6521 23.2912 32.3918C24.0179 33.2265 24.6327 33.8286 25.1383 34.1872C25.6434 34.5459 26.1887 34.8088 26.7649 34.9828C27.3417 35.1561 27.9653 35.2412 28.6396 35.2412C29.4562 35.2412 30.1874 35.1012 30.8314 34.8128L30.6866 34.4592C30.3128 34.5922 29.9142 34.6564 29.4943 34.6564C28.9244 34.6564 28.3485 34.471 27.7712 34.0988C27.1947 33.7256 26.4738 33.0136 25.6139 31.9634C25.2097 31.4601 24.9307 31.1426 24.7731 31.0181C26.4209 30.7006 27.7759 29.9126 28.8326 28.6515C29.8891 27.3909 30.4179 25.9523 30.4179 24.3399C30.4179 22.4255 29.7275 20.8165 28.3571 19.5047C26.9855 18.1928 25.2988 17.5326 23.2981 17.5326ZM31.3138 17.5326L31.3345 17.9474C32.1974 17.9474 32.6807 18.1982 32.7888 18.7023C32.8291 18.8826 32.8475 19.2156 32.8509 19.6951L32.8439 28.8691C32.8368 29.5543 32.7378 29.9918 32.5476 30.1816C32.3571 30.3701 32.0351 30.4882 31.5689 30.5352L31.5482 30.9501H40.1498L40.3703 28.8691H39.9776C39.8655 29.436 39.6082 29.8421 39.1988 30.0728C38.788 30.3052 38.0623 30.4197 37.0137 30.4197H36.2005C35.2571 30.4197 34.7112 30.0831 34.5671 29.4064C34.5373 29.2725 34.5271 29.1289 34.5257 28.9711L34.5602 19.6951C34.56 19.0111 34.6476 18.5527 34.8289 18.3282C35.0123 18.1046 35.3428 17.9795 35.8213 17.9474L35.8008 17.5326H31.3138ZM23.436 18.0358C24.8976 18.0358 26.0911 18.6038 27.0131 19.7495C27.9347 20.8956 28.3915 22.4665 28.3915 24.4555C28.3915 26.3404 27.9281 27.8495 26.9993 28.9847C26.0704 30.1195 24.8342 30.6849 23.2981 30.6849C21.8223 30.6849 20.6255 30.1019 19.7072 28.9303C18.7897 27.7587 18.3356 26.2376 18.3356 24.3671C18.3356 22.445 18.7952 20.9064 19.721 19.7564C20.6462 18.6075 21.8852 18.0358 23.436 18.0358ZM43.2169 20.008C43.0072 20.008 42.8471 20.0779 42.7277 20.2188C42.6051 20.3591 42.5676 20.5291 42.6103 20.7356C42.6516 20.9359 42.7662 21.1115 42.9482 21.2593C43.1291 21.4069 43.3242 21.4837 43.5339 21.4837C43.7367 21.4837 43.8916 21.4069 44.0027 21.2593C44.1138 21.1115 44.1475 20.9359 44.1062 20.7356C44.0631 20.5291 43.9527 20.3591 43.7822 20.2188C43.6096 20.0779 43.4197 20.008 43.2169 20.008ZM48.8893 21.4157C48.5327 22.7688 47.7601 23.501 46.5736 23.6191L46.5871 24.0067H47.9726L47.9451 28.5903C47.9472 29.3739 47.9715 29.8956 48.0278 30.1612C48.1642 30.7969 48.5851 31.1201 49.2889 31.1201C50.3077 31.1201 51.3765 30.5078 52.4938 29.2839L52.1563 28.9983C51.3494 29.8043 50.6358 30.2088 50.0129 30.2088C49.6299 30.2088 49.3924 29.9915 49.3028 29.5628C49.2782 29.4586 49.2684 29.337 49.2684 29.1955L49.2823 24.0067H51.398L51.3775 23.3878H49.2889V21.4157H48.8893ZM57.0703 23.143C55.887 23.143 54.9241 23.7099 54.1758 24.8364C53.431 25.9647 53.2005 27.2149 53.4935 28.5903C53.6657 29.3959 54.0088 30.0203 54.5342 30.4604C55.0585 30.9004 55.7238 31.1201 56.5189 31.1201C57.2596 31.1201 58.2908 30.9351 58.7245 30.5624C59.1596 30.19 59.5606 29.5867 59.9308 28.7603L59.6343 28.4543C59.044 29.5263 57.8519 30.066 56.9533 30.066C55.7175 30.066 54.9609 29.3971 54.679 28.0667C54.6421 27.8968 54.6147 27.7144 54.596 27.5226C56.0661 27.293 57.18 26.8863 57.9321 26.2985C58.6832 25.7104 59.4377 25.0869 59.2967 24.4283C59.2127 24.037 59.0068 23.7293 58.6901 23.4967C58.3693 23.2642 57.5359 23.143 57.0703 23.143ZM44.1336 23.1906L41.5836 23.7687V24.2175L42.4655 24.1087C42.893 24.1087 43.1444 24.2996 43.2239 24.68C43.2506 24.8073 43.2673 24.986 43.2721 25.2104L43.2444 29.3247C43.2374 29.8941 43.1732 30.2251 43.0447 30.3244C42.9148 30.424 42.5725 30.474 42.0176 30.474L42.0037 30.8617H46.0496L46.0427 30.474C45.4805 30.474 45.1163 30.4303 44.9538 30.3448C44.794 30.2599 44.6843 30.1054 44.6367 29.8688C44.5999 29.6982 44.584 29.4044 44.5815 28.9983L44.5954 23.1906H44.1336ZM56.4227 23.9523C56.6689 23.9523 56.9068 24.0461 57.1464 24.2311C57.3825 24.4155 57.5266 24.6205 57.5735 24.8432C57.8044 25.937 56.8214 26.6932 54.6099 27.1146C54.5467 26.317 54.6869 25.5929 55.0442 24.9384C55.3988 24.2845 55.8606 23.9523 56.4227 23.9523Z" fill="#003B57"/>
</g>
<defs>
<linearGradient id="paint0_linear_36_57" x1="51.8105" y1="2.33719" x2="51.8105" y2="84.4652" gradientUnits="userSpaceOnUse">
<stop stop-color="#97D9F6"/>
<stop offset="0.920245" stop-color="#0F80CC"/>
<stop offset="1" stop-color="#0F80CC"/>
</linearGradient>
<linearGradient id="paint1_linear_36_57" x1="38.1895" y1="2.33744" x2="38.1895" y2="84.4655" gradientUnits="userSpaceOnUse">
<stop stop-color="#97D9F6"/>
<stop offset="0.920245" stop-color="#0F80CC"/>
<stop offset="1" stop-color="#0F80CC"/>
</linearGradient>
</defs>
</svg>
