<svg width="28" height="25" viewBox="0 0 28 25" fill="none" xmlns="http://www.w3.org/2000/svg">
<path d="M0 16.8307C0.0584688 16.6597 0.162899 16.503 0.304809 16.3733C0.446719 16.2436 0.622107 16.1446 0.816729 16.0843C0.998105 16.0363 1.19025 16.0269 1.37678 16.0568C1.5633 16.0867 1.73866 16.1551 1.8879 16.2561C2.03714 16.3571 2.15582 16.4877 2.23382 16.6368C2.31182 16.7859 2.34683 16.9491 2.33584 17.1124C2.33584 18.3096 2.37668 19.4997 2.33584 20.6898C2.33584 21.6686 2.80955 22.0982 3.9693 22.0982C10.74 22.0982 17.5107 22.0982 24.2895 22.0982C24.4702 22.1043 24.651 22.0925 24.8286 22.063C25.0768 21.9997 25.2928 21.8656 25.4411 21.6826C25.5895 21.4997 25.6615 21.2788 25.6453 21.056V17.1617C25.6346 17.0175 25.6573 16.8729 25.712 16.7363C25.7667 16.5997 25.8523 16.4738 25.9638 16.366C26.0937 16.2469 26.2553 16.157 26.4345 16.1038C26.6138 16.0507 26.8054 16.0359 26.9927 16.0609C27.18 16.0858 27.3575 16.1497 27.5098 16.2471C27.6621 16.3444 27.7846 16.4722 27.8668 16.6195L27.9811 16.8307V21.4363C27.9613 21.4702 27.9449 21.5055 27.9321 21.5419C27.8021 22.246 27.3854 22.8872 26.7568 23.3505C26.1282 23.8137 25.3288 24.0688 24.5019 24.07H3.50377C2.70542 24.0729 1.93008 23.8395 1.30725 23.4089C0.684418 22.9783 0.251807 22.3764 0.0816729 21.7038C0.0816729 21.6193 0.0245019 21.5278 0 21.4363V16.8307Z" fill="#F2F2F2"/>
<path d="M14.2603 0L14.342 0.0492944C14.591 0.111497 14.8078 0.245328 14.9564 0.428532C15.105 0.611736 15.1764 0.833275 15.1587 1.05631C15.1587 2.24642 15.1587 3.44357 15.1587 4.63368V16.4643L15.3955 16.2672L18.5073 13.5912C18.6487 13.4625 18.8272 13.3685 19.0246 13.3189C19.2219 13.2693 19.431 13.2658 19.6305 13.3088C19.8299 13.3518 20.0125 13.4397 20.1596 13.5636C20.3067 13.6874 20.4129 13.8428 20.4674 14.0137C20.5301 14.1797 20.5373 14.3576 20.4882 14.527C20.4391 14.6964 20.3357 14.8504 20.1897 14.9714C18.9156 16.077 17.6579 17.1967 16.343 18.2671C15.7083 18.7816 14.87 19.068 13.9989 19.068C13.1279 19.068 12.2896 18.7816 11.6549 18.2671C10.34 17.1826 9.06589 16.0629 7.78363 14.9503C7.67396 14.859 7.58674 14.7496 7.52716 14.6286C7.46759 14.5076 7.43689 14.3775 7.43689 14.2461C7.43689 14.1147 7.46759 13.9846 7.52716 13.8636C7.58674 13.7426 7.67396 13.6332 7.78363 13.5419C8.00085 13.3561 8.29441 13.2519 8.60036 13.2519C8.90631 13.2519 9.19987 13.3561 9.41709 13.5419C10.4625 14.4292 11.4916 15.3235 12.5288 16.2108C12.5942 16.2742 12.6677 16.3305 12.7983 16.4362V16.0911C12.7983 11.1617 12.7983 6.23222 12.7983 1.30278C12.7534 1.028 12.8198 0.748264 12.9865 0.510877C13.1532 0.27349 13.4099 0.0930236 13.7131 0L14.2603 0Z" fill="#F2F2F2"/>
</svg>
