<svg width="27" height="27" viewBox="0 0 27 27" fill="none" xmlns="http://www.w3.org/2000/svg">
<path d="M13.4993 26.3978C20.6452 26.3978 26.4381 20.6049 26.4381 13.459C26.4381 6.31315 20.6452 0.520264 13.4993 0.520264C6.35343 0.520264 0.560547 6.31315 0.560547 13.459C0.560547 20.6049 6.35343 26.3978 13.4993 26.3978Z" fill="white" stroke="white"/>
<path d="M13.5006 1.00002C15.6986 0.99611 17.8584 1.57409 19.7607 2.67524H7.23874C9.14151 1.57379 11.302 0.995804 13.5006 1.00002ZM22.5028 4.82876C23.0333 5.37762 23.5121 5.97417 23.9331 6.61084H3.06976C3.48839 5.97304 3.96652 5.37635 4.49774 4.82876H22.5028ZM25.0682 8.75685C25.3059 9.33669 25.499 9.93379 25.6459 10.543H1.35295C1.50364 9.93487 1.69667 9.33804 1.93061 8.75685H25.0682ZM25.974 12.6896C25.9913 12.9599 26.0012 13.2308 26.0012 13.5023C26.0012 13.8299 25.9884 14.1551 25.9636 14.4757H1.03755C1.01329 14.1528 1 13.8241 1 13.5023C1 13.2291 1.00982 12.9582 1.02715 12.6896H25.974ZM25.6083 16.6205C25.4517 17.231 25.2486 17.8285 25.0006 18.4078H1.99993C1.7526 17.8282 1.54945 17.2308 1.39223 16.6205H25.6083ZM23.8234 20.5486C23.3836 21.1917 22.8851 21.7926 22.3342 22.3434H4.66641C4.11583 21.7923 3.61731 21.1915 3.1772 20.5486H23.8234ZM19.4753 24.4814C17.6413 25.4779 15.5872 25.9999 13.5 25.9999C11.4128 25.9999 9.35867 25.4779 7.52468 24.4814H19.4753Z" fill="#B22234"/>
<path d="M14.203 1.02022V14.5612H1.04564C1.01502 14.2105 1 13.8587 1 13.5006C1 6.59695 6.59638 1 13.5006 1C13.7363 1 13.9708 1.00751 14.203 1.02022Z" fill="#3C3B6E"/>
<path d="M1.64758 9.51867L1.70535 9.69543L1.61292 9.62727L1.64758 9.51867ZM12.5821 12.4035L13.0442 13.828L11.8312 12.9471H13.3273L12.1142 13.828L12.5821 12.4035ZM12.5821 9.65038L13.0442 11.0726L11.8312 10.1934H13.3273L12.1142 11.0726L12.5821 9.65038ZM12.5821 6.89551L13.0442 8.31945L11.8312 7.43793H13.3273L12.1142 8.31945L12.5821 6.89551ZM12.5821 4.14238L13.0442 5.56458L11.8312 4.6848H13.3273L12.1142 5.56343L12.5821 4.14238ZM12.5821 1.38867L13.0442 2.81145L11.8312 1.9311H13.3273L12.1142 2.81145L12.5821 1.38867ZM10.9589 11.0252L11.421 12.4486L10.2079 11.5676H11.7099L10.5025 12.4486L10.9589 11.0252ZM10.9589 8.2715L11.421 9.69543L10.2079 8.81392H11.7099L10.5025 9.69543L10.9589 8.2715ZM10.9589 5.51837L11.421 6.94057L10.2079 6.06079H11.7099L10.5025 6.94057L10.9589 5.51837ZM10.9589 2.76293L11.421 4.18686L10.2079 3.30593H11.7099L10.5025 4.18686L10.9589 2.76293ZM9.34144 12.4035L9.80357 13.828L8.59048 12.9471H10.0924L8.87931 13.828L9.34144 12.4035ZM9.34144 9.65038L9.80357 11.0726L8.59048 10.1934H10.0924L8.87931 11.0726L9.34144 9.65038ZM9.34144 6.89551L9.80357 8.31945L8.59337 7.43562H10.0895L8.87643 8.31713L9.34144 6.89551ZM9.34144 4.14238L9.80357 5.56458L8.59048 4.6848H10.0924L8.87931 5.56343L9.34144 4.14238ZM9.43618 1.67692L9.8053 2.81145L8.65692 1.97326L8.76436 1.92936H10.093L8.87989 2.80972L9.22649 1.75029L9.43618 1.67692ZM7.72399 11.0252L8.18612 12.4486L6.97303 11.5676H8.46975L7.25667 12.4486L7.72399 11.0252ZM7.72399 8.2715L8.18612 9.69543L6.97303 8.81392H8.46975L7.25667 9.69543L7.72399 8.2715ZM7.72399 5.51837L8.18612 6.94057L6.97303 6.06079H8.46975L7.25667 6.94057L7.72399 5.51837ZM7.72399 2.76293L8.18612 4.18686L6.97303 3.30593H8.46975L7.26187 4.18686L7.72399 2.76293ZM6.10654 12.4035L6.56405 13.828L5.35905 12.9471H6.8575L5.64442 13.828L6.10654 12.4035ZM6.10654 9.65038L6.56405 11.0726L5.35905 10.1934H6.8575L5.64442 11.0726L6.10654 9.65038ZM6.10654 6.89551L6.56405 8.31945L5.35963 7.43562H6.8575L5.64442 8.31713L6.10654 6.89551ZM6.10654 4.14296L6.56405 5.56343L5.35905 4.68538H6.8575L5.64442 5.56343L6.10654 4.14296ZM4.48505 11.0252L4.94718 12.4486L3.73813 11.5676H5.23428L4.02119 12.4486L4.48505 11.0252ZM4.48505 8.2715L4.94718 9.69543L3.73813 8.81392H5.23428L4.02119 9.69543L4.48505 8.2715ZM4.48505 5.51837L4.94718 6.94057L3.73813 6.06079H5.23428L4.02119 6.94057L4.48505 5.51837ZM2.86413 12.4035L3.32626 13.828L2.11318 12.9471H3.61509L2.40027 13.824L2.86413 12.4035ZM2.86413 9.65038L3.32626 11.0726L2.11318 10.1934H3.61509L2.40201 11.0708L2.86413 9.65038ZM2.87164 6.91862L3.32626 8.31771L2.43955 7.67247L2.56664 7.4362H3.61798L2.40027 8.31771L2.83929 6.9735L2.87222 6.92151L2.87164 6.91862ZM1.24842 11.0252L1.70419 12.4486L1.09014 11.9991L1.06299 12.2458L1.99591 11.5671H1.1479C1.17563 11.3926 1.20683 11.2193 1.24149 11.0472L1.24842 11.0252ZM1.90926 8.81392H1.99591L1.87229 8.90462L1.90926 8.81392Z" fill="white"/>
</svg>
