<svg width="26" height="26" viewBox="0 0 26 26" fill="none" xmlns="http://www.w3.org/2000/svg">
<path d="M12.2503 0H13.8716L14.0902 0.0409157C14.623 0.118335 15.1649 0.159322 15.6887 0.268621C17.4835 0.648683 19.1763 1.40867 20.6531 2.49719C22.13 3.58572 23.3568 4.97768 24.251 6.57965C25.1453 8.18162 25.6863 9.95644 25.8378 11.7848C25.9892 13.6132 25.7476 15.4529 25.1291 17.1802C24.5106 18.9074 23.5296 20.4823 22.2519 21.799C20.9743 23.1157 19.4296 24.1436 17.7218 24.8138C16.0139 25.484 14.1823 25.7808 12.3502 25.6844C10.5181 25.5881 8.72779 25.1007 7.09964 24.255C6.99007 24.2041 6.86665 24.1915 6.74897 24.2188C5.33416 24.5831 3.91784 24.9535 2.5 25.33C1.73491 25.5303 0.974372 25.7398 0.222946 25.9493H0.113647C0.123935 25.9356 0.131651 25.9201 0.136418 25.9037C0.725415 23.7481 1.31289 21.5926 1.89885 19.437C1.91707 19.3261 1.89785 19.2124 1.84421 19.1137C0.851694 17.3208 0.30133 15.317 0.238836 13.2687C0.176341 11.2204 0.603522 9.18661 1.48489 7.33659C2.36625 5.48657 3.67636 3.8737 5.30635 2.63173C6.93635 1.38976 8.83919 0.554722 10.8568 0.195906C11.3213 0.136703 11.7858 0.0819738 12.2503 0ZM3.21499 22.8888L3.42903 22.8526C4.60399 22.5474 5.77439 22.2423 6.9448 21.9417C7.03895 21.9132 7.13815 21.9052 7.23561 21.9186C7.33308 21.932 7.4265 21.9663 7.5095 22.0191C8.86919 22.8712 10.4077 23.3968 12.0045 23.5548C13.6013 23.7128 15.213 23.499 16.7133 22.9299C19.0244 22.0865 20.9738 20.4716 22.2325 18.3578C23.4911 16.244 23.9821 13.7607 23.6225 11.327C23.2629 8.89324 22.0747 6.65785 20.2585 4.99839C18.4423 3.33893 16.1092 2.35696 13.653 2.2179C11.0653 2.03885 8.50668 2.85318 6.49849 4.49495C3.21954 7.17731 1.9444 10.652 2.58652 14.8417C2.82091 16.2369 3.35036 17.5659 4.13947 18.7401C4.19341 18.8139 4.22828 18.8999 4.24099 18.9905C4.2537 19.081 4.24386 19.1735 4.21234 19.2593C4.08938 19.651 3.98919 20.0518 3.88444 20.4525C3.66129 21.2404 3.44269 22.0463 3.21499 22.8888Z" fill="#F2F2F2"/>
<path d="M8.93953 6.95413C9.49513 6.81296 9.7456 7.17721 9.93688 7.67816C10.2238 8.42959 10.5426 9.16297 10.8477 9.90073C10.8998 9.99755 10.9247 10.1065 10.9199 10.2163C10.9151 10.3261 10.8807 10.4326 10.8204 10.5245C10.5699 10.8797 10.3103 11.235 10.0325 11.5721C9.98124 11.6131 9.93872 11.664 9.90744 11.7217C9.87616 11.7795 9.85677 11.8429 9.8504 11.9083C9.84403 11.9736 9.85082 12.0395 9.87037 12.1022C9.88991 12.1649 9.92182 12.2232 9.9642 12.2734C10.9563 14.0023 12.5104 15.3394 14.368 16.0623C14.4204 16.0956 14.4791 16.1178 14.5404 16.1275C14.6017 16.1372 14.6643 16.1342 14.7245 16.1188C14.7846 16.1035 14.841 16.076 14.8901 16.0381C14.9392 16.0002 14.9801 15.9527 15.0101 15.8984C15.338 15.5007 15.6614 15.0999 15.9802 14.6961C16.1851 14.4365 16.3354 14.3636 16.636 14.5002C17.5468 14.9192 18.4576 15.352 19.3411 15.8028C19.4041 15.8469 19.4565 15.9044 19.4943 15.9714C19.5322 16.0384 19.5545 16.113 19.5597 16.1897C19.5939 16.6246 19.5119 17.0608 19.3223 17.4537C19.1327 17.8466 18.8421 18.1821 18.4804 18.4259C17.9783 18.7542 17.4074 18.9624 16.8119 19.0343C16.2164 19.1062 15.6123 19.0398 15.0466 18.8404C11.9908 17.966 9.7456 16.0258 7.94218 13.4846C7.35945 12.7382 6.92647 11.8862 6.66703 10.9754C6.48126 10.3255 6.47999 9.63657 6.66337 8.98591C6.84674 8.33525 7.20753 7.74834 7.70537 7.29102C7.86922 7.14037 8.06677 7.03122 8.28149 6.97259C8.49621 6.91396 8.72185 6.90766 8.93953 6.95413Z" fill="#F2F2F2"/>
</svg>
