<svg width="25" height="25" viewBox="0 0 25 25" fill="none" xmlns="http://www.w3.org/2000/svg">
<g clip-path="url(#clip0_36_24)">
<path d="M12.4994 0.5C19.1269 0.5 24.4994 5.87259 24.4994 12.4994C24.4994 19.1263 19.1268 24.5 12.4994 24.5C5.87205 24.5 0.5 19.1269 0.5 12.5C0.5 5.87313 5.87261 0.5 12.4994 0.5Z" fill="#009B3A" stroke="white"/>
<path d="M1.08936 12.57L12.4492 19.8212L23.8084 12.57L12.4492 5.31982L1.08936 12.57Z" fill="#FEDF00"/>
<path d="M12.4492 7.7804C13.3966 7.7804 14.3227 8.06135 15.1105 8.58771C15.8982 9.11408 16.5121 9.86223 16.8747 10.7375C17.2372 11.6128 17.332 12.576 17.1472 13.5052C16.9623 14.4344 16.506 15.2879 15.8361 15.9578C15.1661 16.6277 14.3125 17.0839 13.3833 17.2686C12.4541 17.4534 11.4909 17.3584 10.6157 16.9958C9.7404 16.6332 8.99233 16.0191 8.46605 15.2313C7.93978 14.4435 7.65894 13.5173 7.65906 12.5699C7.65898 11.9409 7.78283 11.318 8.02354 10.7368C8.26424 10.1557 8.61709 9.62761 9.06191 9.18284C9.50673 8.73807 10.0348 8.38529 10.616 8.14466C11.1972 7.90402 11.8201 7.78024 12.4492 7.7804Z" fill="#002776"/>
<path d="M8.068 10.6354C8.61245 10.5573 9.16185 10.5187 9.71188 10.5199C12.4478 10.5172 15.0967 11.4818 17.1902 13.2433C17.1565 13.5007 17.0997 13.7546 17.0203 14.0017C15.0153 12.1949 12.4109 11.1966 9.71188 11.2003C9.07429 11.2012 8.43794 11.2567 7.80981 11.3661C7.87701 11.1163 7.96333 10.872 8.068 10.6354Z" fill="white"/>
<path fill-rule="evenodd" clip-rule="evenodd" d="M8.35395 11.0872C8.37094 11.0839 8.38709 11.0771 8.40148 11.0675C8.41586 11.0578 8.42819 11.0454 8.43775 11.031C8.44731 11.0165 8.45391 11.0003 8.45718 10.9833C8.46044 10.9663 8.4603 10.9488 8.45676 10.9318C8.45497 10.8972 8.43972 10.8646 8.41427 10.8409C8.38882 10.8173 8.35516 10.8046 8.32044 10.8054C8.28667 10.8132 8.25724 10.8339 8.2383 10.8629C8.21936 10.892 8.21237 10.9272 8.21879 10.9613C8.22043 10.9958 8.23549 11.0282 8.26074 11.0518C8.286 11.0753 8.31944 11.088 8.35395 11.0872ZM16.6507 13.4242C16.6807 13.4426 16.7167 13.4488 16.7511 13.4413C16.7855 13.4339 16.8158 13.4135 16.8355 13.3844C16.8475 13.372 16.8569 13.3574 16.8631 13.3414C16.8693 13.3253 16.8722 13.3082 16.8717 13.291C16.8712 13.2738 16.8672 13.2569 16.86 13.2413C16.8528 13.2257 16.8425 13.2117 16.8298 13.2001C16.7997 13.1852 16.7655 13.1809 16.7327 13.1882C16.7 13.1954 16.6707 13.2136 16.6497 13.2399C16.6288 13.2661 16.6175 13.2987 16.6176 13.3322C16.6178 13.3658 16.6295 13.3982 16.6507 13.4242ZM16.5964 13.4918C16.6194 13.5086 16.6455 13.5206 16.6731 13.5273C16.7008 13.5339 16.7295 13.535 16.7576 13.5305C16.7856 13.526 16.8126 13.5159 16.8367 13.501C16.8609 13.486 16.8819 13.4664 16.8985 13.4433C16.9358 13.3997 16.9547 13.3433 16.9511 13.2861C16.9476 13.2288 16.9219 13.1752 16.8794 13.1366C16.8564 13.1199 16.8302 13.1079 16.8025 13.1013C16.7748 13.0948 16.7461 13.0938 16.718 13.0984C16.6899 13.103 16.663 13.1132 16.6389 13.1283C16.6147 13.1433 16.5938 13.163 16.5773 13.1863C16.5395 13.2298 16.5203 13.2865 16.5239 13.3441C16.5275 13.4017 16.5535 13.4555 16.5964 13.4941V13.4918ZM16.1343 12.9668C16.1106 13.006 16.1297 13.0499 16.1828 13.0823C16.236 13.1146 16.2753 13.121 16.2897 13.0973C16.3434 13.0193 16.0621 12.8934 16.1586 12.7617C16.2412 12.6497 16.3682 12.7467 16.4168 12.7808C16.4653 12.8148 16.5386 12.9026 16.4745 12.9904L16.3919 12.9327C16.4214 12.8946 16.3919 12.8553 16.3538 12.8212C16.3157 12.7871 16.2805 12.7773 16.251 12.8166C16.2025 12.8743 16.482 13.0107 16.3873 13.1424C16.3192 13.2394 16.2071 13.1909 16.1395 13.1366C16.0766 13.0938 15.9888 12.9916 16.0563 12.8992L16.1343 12.9668ZM15.6485 12.641C15.6237 12.6803 15.6485 12.723 15.7017 12.7565C15.7548 12.79 15.7941 12.79 15.8085 12.7658C15.8571 12.6878 15.5706 12.5717 15.6578 12.4354C15.7352 12.3198 15.8669 12.4105 15.9154 12.44C15.9639 12.4694 16.0419 12.5515 15.983 12.6439L15.901 12.5907C15.9258 12.5468 15.8963 12.5081 15.8524 12.4839C15.8085 12.4596 15.7745 12.4446 15.7502 12.4839C15.7063 12.5468 15.9888 12.6687 15.9056 12.805C15.8426 12.9061 15.7323 12.8628 15.6532 12.8143C15.5896 12.7756 15.4972 12.6785 15.5561 12.5832L15.6485 12.641ZM14.9831 12.4203L15.3384 12.6242L15.3823 12.5509L15.0894 12.3845L15.1472 12.2835L15.3782 12.4094L15.4117 12.3418L15.1888 12.2147L15.2321 12.1367L15.5041 12.2881L15.548 12.2147L15.2078 12.0253L14.9831 12.4203ZM14.8099 12.3325C14.8324 12.2863 14.8763 12.1985 14.852 12.1414C14.8759 12.1387 14.8989 12.1304 14.919 12.1172C14.9391 12.1039 14.9557 12.0861 14.9676 12.0651C14.9839 12.0308 14.9865 11.9915 14.9747 11.9553C14.963 11.9191 14.9379 11.8887 14.9046 11.8705L14.6735 11.7549L14.465 12.1593L14.5424 12.198L14.6146 12.0466L14.7758 12.1298H14.7787C14.7871 12.1888 14.7742 12.2488 14.7423 12.299L14.8099 12.3325ZM14.6499 11.9675L14.8052 12.0449C14.8187 12.0519 14.8343 12.0533 14.8488 12.0489C14.8633 12.0445 14.8754 12.0345 14.8826 12.0212C14.8865 12.0144 14.8887 12.0067 14.8893 11.9989C14.8899 11.9911 14.8888 11.9832 14.8861 11.9759C14.8833 11.9685 14.879 11.9618 14.8734 11.9563C14.8678 11.9508 14.8611 11.9465 14.8538 11.9438L14.7007 11.8647L14.6522 11.9663L14.6499 11.9675ZM14.3385 11.852L14.4015 11.8809L14.3975 11.8918L14.3917 11.9022L14.3097 12.0894L14.2461 12.0605L14.2681 12.0102C14.2222 12.029 14.1707 12.029 14.1248 12.0102C14.0987 11.9981 14.0754 11.9807 14.0562 11.9593C14.037 11.9378 14.0224 11.9127 14.0132 11.8854C14.0041 11.8582 14.0005 11.8293 14.0028 11.8006C14.0051 11.7719 14.0132 11.744 14.0266 11.7186C14.036 11.6917 14.0507 11.6669 14.0699 11.6459C14.0891 11.6248 14.1123 11.6079 14.1382 11.5961C14.1641 11.5842 14.1922 11.5778 14.2206 11.5771C14.2491 11.5764 14.2774 11.5815 14.3039 11.5921C14.3438 11.6101 14.3767 11.6407 14.3975 11.6792C14.4184 11.7177 14.4261 11.7619 14.4194 11.8052L14.3368 11.7671C14.3352 11.7462 14.328 11.7261 14.3159 11.709C14.3038 11.6919 14.2872 11.6785 14.2681 11.67C14.2519 11.6642 14.2346 11.6617 14.2174 11.6627C14.2002 11.6636 14.1834 11.6681 14.168 11.6758C14.1525 11.6834 14.1388 11.6941 14.1276 11.7073C14.1164 11.7204 14.108 11.7356 14.1029 11.7521C14.094 11.767 14.0882 11.7837 14.0858 11.8009C14.0835 11.8182 14.0846 11.8358 14.0892 11.8526C14.0938 11.8694 14.1017 11.8851 14.1125 11.8988C14.1233 11.9125 14.1367 11.9239 14.152 11.9323C14.1743 11.9404 14.1985 11.942 14.2217 11.9369C14.2449 11.9317 14.2662 11.9201 14.2831 11.9034L14.2155 11.8739L14.2392 11.8162L14.3212 11.8514L14.3356 11.8578L14.3385 11.852ZM13.6131 11.7099C13.6387 11.7249 13.6683 11.7316 13.6979 11.7292C13.7275 11.7268 13.7557 11.7152 13.7785 11.6962C13.8013 11.6772 13.8177 11.6516 13.8255 11.6229C13.8332 11.5943 13.8319 11.5639 13.8218 11.536C13.8116 11.5081 13.7931 11.4839 13.7688 11.4669C13.7444 11.4499 13.7154 11.4408 13.6857 11.4409C13.656 11.441 13.627 11.4502 13.6028 11.4673C13.5785 11.4844 13.5601 11.5086 13.5501 11.5366C13.5429 11.5522 13.5389 11.5691 13.5382 11.5863C13.5376 11.6034 13.5404 11.6206 13.5465 11.6366C13.5526 11.6527 13.5618 11.6674 13.5736 11.6799C13.5855 11.6924 13.5996 11.7024 13.6154 11.7093L13.6131 11.7099ZM13.5848 11.7879C13.6265 11.8088 13.6736 11.8167 13.7198 11.8104C13.7661 11.804 13.8094 11.7839 13.8439 11.7525C13.8785 11.7211 13.9027 11.6799 13.9134 11.6345C13.9241 11.589 13.9208 11.5414 13.904 11.4979C13.8871 11.4543 13.8574 11.417 13.8188 11.3906C13.7803 11.3643 13.7346 11.3503 13.6879 11.3504C13.6412 11.3505 13.5957 11.3648 13.5572 11.3913C13.5188 11.4179 13.4894 11.4554 13.4727 11.4991C13.461 11.5255 13.4547 11.5539 13.4541 11.5828C13.4535 11.6117 13.4587 11.6403 13.4694 11.6672C13.48 11.694 13.4959 11.7185 13.5161 11.7391C13.5363 11.7597 13.5605 11.7761 13.5871 11.7873L13.5848 11.7879ZM13.2099 11.6567C13.2255 11.6076 13.2555 11.5141 13.2238 11.4609C13.2549 11.4549 13.2831 11.4386 13.304 11.4147C13.3248 11.3908 13.3371 11.3606 13.3389 11.329C13.3407 11.2973 13.3319 11.2659 13.3138 11.2398C13.2958 11.2137 13.2696 11.1944 13.2393 11.1848L12.991 11.1069L12.8402 11.5401L12.9234 11.5643L12.9765 11.4038L13.1498 11.4563C13.1662 11.5135 13.1628 11.5746 13.14 11.6296L13.2122 11.6544L13.2099 11.6567ZM12.9956 11.3212L13.1614 11.3755C13.1688 11.3778 13.1766 11.3787 13.1844 11.378C13.1922 11.3772 13.1997 11.3749 13.2066 11.3712C13.2134 11.3675 13.2194 11.3624 13.2243 11.3563C13.2291 11.3502 13.2327 11.3431 13.2347 11.3356C13.2392 11.3213 13.2379 11.3059 13.2312 11.2926C13.2246 11.2792 13.213 11.269 13.1989 11.264H13.1954L13.0308 11.2108L12.9956 11.3212ZM12.4267 11.1658L12.5999 11.2097C12.6154 11.2125 12.6314 11.2097 12.6449 11.2016C12.6584 11.1935 12.6685 11.1808 12.6733 11.1658C12.6764 11.1503 12.6736 11.1342 12.6655 11.1206C12.6574 11.1071 12.6445 11.097 12.6294 11.0924L12.4561 11.0485L12.4267 11.1658ZM12.2817 11.3899L12.3637 11.409L12.4076 11.2432L12.5809 11.2877C12.5991 11.2924 12.618 11.2935 12.6367 11.2909C12.6553 11.2883 12.6732 11.2821 12.6895 11.2726C12.7057 11.2631 12.7199 11.2504 12.7312 11.2354C12.7426 11.2204 12.7509 11.2033 12.7556 11.1851C12.7603 11.1669 12.7615 11.148 12.7589 11.1293C12.7563 11.1107 12.75 11.0928 12.7405 11.0765C12.731 11.0603 12.7184 11.0461 12.7034 11.0348C12.6884 11.0234 12.6713 11.0151 12.6531 11.0104L12.4053 10.9405L12.284 11.3882L12.2817 11.3899ZM11.4153 11.2166L11.7497 11.2744L11.7641 11.1964L11.5019 11.1525L11.5221 11.0514L11.7306 11.0849L11.7451 11.0121L11.5366 10.9734L11.5458 10.9001L11.7994 10.944L11.8138 10.8666L11.4828 10.8123L11.4153 11.2166ZM10.4697 11.1138L10.5477 11.123L10.5772 10.8071L10.6401 11.1277L10.7129 11.1375L10.8284 10.8313L10.799 11.1421L10.8769 11.1479L10.9208 10.695L10.8053 10.6858L10.6898 10.9867L10.6263 10.6708L10.5148 10.661L10.4709 11.1138H10.4697ZM9.89211 11.089L10.3057 11.104V11.0214L9.97529 11.0069L9.97991 10.8914L10.2375 10.9012L10.2421 10.8238L9.97991 10.8134L9.98453 10.721L10.2964 10.736L10.3011 10.6482L9.91233 10.6332L9.89211 11.0907V11.089ZM9.39595 11.0069H9.51783C9.55072 11.0059 9.58189 10.992 9.60466 10.9682C9.62744 10.9445 9.64002 10.9128 9.6397 10.8799V10.8412C9.63894 10.8083 9.62523 10.777 9.60153 10.7542C9.57784 10.7314 9.5461 10.7188 9.5132 10.7193L9.38613 10.7239L9.39595 11.0069ZM9.31393 11.0936L9.52822 11.089C9.57987 11.0869 9.62876 11.0651 9.66477 11.028C9.70078 10.9909 9.72117 10.9414 9.72172 10.8897V10.825C9.72052 10.7729 9.69901 10.7233 9.66178 10.6869C9.62456 10.6504 9.57456 10.6299 9.52245 10.6298L9.30815 10.6355L9.31393 11.0918V11.0936ZM9.1239 11.104C9.11985 11.0543 9.11292 10.9526 9.06209 10.9174C9.08209 10.9038 9.09802 10.885 9.10819 10.863C9.11836 10.841 9.12239 10.8167 9.11985 10.7926C9.11704 10.7552 9.09957 10.7204 9.07124 10.6957C9.04291 10.6711 9.006 10.6586 8.96852 10.661L8.71149 10.68L8.73574 11.1329L8.81776 11.1277L8.80852 10.9544L8.98181 10.9399C9.03148 10.9827 9.03957 11.0641 9.04419 11.1132L9.12216 11.1034L9.1239 11.104ZM8.80332 10.8729L8.97661 10.8625C8.98425 10.862 8.99171 10.8599 8.99854 10.8564C9.00536 10.8529 9.01143 10.8481 9.01638 10.8422C9.02132 10.8363 9.02505 10.8295 9.02735 10.8222C9.02964 10.8149 9.03046 10.8072 9.02975 10.7996C9.02988 10.7916 9.02824 10.7837 9.02495 10.7765C9.02166 10.7692 9.0168 10.7628 9.01072 10.7576C9.00464 10.7525 8.99749 10.7488 8.98979 10.7467C8.98209 10.7447 8.97404 10.7444 8.96621 10.7459L8.79293 10.7603L8.80275 10.8729H8.80332ZM8.36434 11.1716C8.41682 11.1559 8.46202 11.1221 8.49188 11.0762C8.52174 11.0303 8.53433 10.9752 8.52739 10.9209C8.52045 10.8666 8.49444 10.8165 8.454 10.7796C8.41356 10.7426 8.36131 10.7213 8.30658 10.7193C8.25051 10.7305 8.20103 10.7632 8.16866 10.8103C8.1363 10.8574 8.12361 10.9153 8.1333 10.9717C8.13913 11.0282 8.16628 11.0803 8.20922 11.1174C8.25215 11.1546 8.30763 11.1739 8.36434 11.1716Z" fill="#009B3A"/>
<path d="M8.53878 11.5053L8.58557 11.6463H8.73401L8.61503 11.7341L8.66066 11.875L8.53994 11.7895L8.41806 11.875L8.48391 11.7485L8.34529 11.6463H8.49315L8.53878 11.5053ZM13.8152 11.2529L13.8626 11.1091L13.7372 11.0242H13.8892L13.9365 10.8781L13.9804 11.0242H14.1318L14.007 11.1091L14.0538 11.2529L13.9348 11.1651L13.8152 11.2529ZM9.08404 13.8862L9.03841 13.7453L9.1574 13.6575H9.00838L8.96217 13.5171L8.91769 13.6575H8.76752L8.8865 13.7453L8.84087 13.8862L8.96217 13.8007L9.08404 13.8862ZM12.4099 16.3699L12.4249 16.3197L12.3862 16.292H12.4347L12.4492 16.2429L12.463 16.292H12.5127L12.4729 16.3203L12.4879 16.3699L12.4492 16.3416L12.4099 16.3699ZM10.4068 15.2725L10.4524 15.1281L10.3334 15.0449H10.4819L10.5286 14.8988L10.5748 15.0449H10.7221L10.6008 15.1298L10.6499 15.2725L10.5263 15.1847L10.4068 15.2725ZM13.4265 15.3603L13.4548 15.2661L13.3734 15.2084H13.4721L13.5039 15.1113L13.5391 15.2147H13.6385L13.557 15.2725L13.5848 15.3666L13.5068 15.3089L13.4294 15.3666L13.4265 15.3603ZM14.2138 15.4758L14.2421 15.3799L14.1606 15.3222H14.2611L14.2918 15.2297L14.3229 15.3222H14.4234L14.3426 15.3799L14.3749 15.4758L14.2923 15.418L14.2138 15.4758ZM13.7811 15.9275L13.8204 15.8079L13.7182 15.7328H13.8464L13.8834 15.6173L13.9209 15.7328H14.044L13.9435 15.8143L13.9787 15.935L13.8857 15.8611L13.7811 15.9275ZM12.1529 14.1797L12.1737 14.1121L12.1159 14.0728H12.1864L12.2083 14.0052L12.2332 14.0728H12.3007L12.243 14.1115L12.2649 14.1797L12.2072 14.1381L12.1529 14.1797ZM11.8854 13.8781L11.9184 13.7846L11.8369 13.7268H11.9357L11.968 13.6292L12.001 13.7268H12.0997L12.0171 13.7846L12.0454 13.877L11.9669 13.8192L11.8854 13.877V13.8781ZM12.902 13.9076L12.9419 13.7886L12.8431 13.7181H12.965L13.0043 13.5963L13.0435 13.7181H13.1643L13.0666 13.7875L13.1059 13.9076L13.0043 13.8342L12.9038 13.9076H12.902ZM12.3262 14.8855L12.3718 14.7446L12.2528 14.6568H12.4018L12.4475 14.5158L12.4931 14.6568H12.6415L12.5225 14.7446L12.5693 14.8855L12.4475 14.7994L12.3262 14.8855ZM14.7469 15.3181L14.7758 15.2274L14.6943 15.1668H14.7931L14.8249 15.0697L14.8578 15.1668H14.9566L14.8763 15.2245L14.9081 15.3164L14.826 15.2586L14.7469 15.3164V15.3181ZM15.6035 15.1962L15.6416 15.0807L15.5446 15.0085H15.6665L15.7052 14.893L15.7444 15.0085H15.8657L15.7687 15.0807L15.8074 15.1962L15.7057 15.1258L15.6035 15.1962ZM15.2385 15.4105L15.2702 15.3152L15.1899 15.2575H15.2899L15.3205 15.1604L15.3534 15.2575H15.4527L15.3707 15.3152L15.3996 15.41L15.3205 15.3522L15.2385 15.41V15.4105ZM14.7573 16.2712L14.7891 16.1759L14.7088 16.1181H14.8099L14.8416 16.0211L14.8711 16.1181H14.9681L14.8925 16.1759L14.9196 16.2712L14.8411 16.2134L14.7596 16.2712H14.7573ZM14.7469 15.8189L14.7827 15.6982L14.6839 15.6243H14.8099L14.8491 15.5087L14.8873 15.6243H15.0138L14.9121 15.6982L14.9508 15.8189L14.8503 15.745L14.7469 15.8189ZM15.9021 14.8121L15.9402 14.6966L15.8392 14.6209H15.9605L15.9992 14.5054L16.0384 14.6209H16.1644L16.0627 14.6949L16.1008 14.8104L16.0015 14.7399L15.9021 14.8121ZM16.3885 14.4078L16.4208 14.3119L16.3399 14.2542H16.4399L16.4711 14.1617L16.4982 14.2542H16.597L16.5202 14.3119L16.549 14.4084L16.4699 14.3506L16.3885 14.4084V14.4078ZM15.6832 14.4182L15.73 14.2738L15.6104 14.1895H15.7583L15.8051 14.0474L15.8507 14.1895H15.9992L15.8802 14.2738L15.927 14.4182L15.8051 14.3287L15.6832 14.4182ZM9.73385 14.7879L9.76562 14.6914L9.68533 14.6337H9.78642L9.81703 14.5412L9.8436 14.6337H9.94295L9.86497 14.6949L9.89616 14.7896L9.81587 14.7318L9.73385 14.7879ZM9.85977 14.3397L9.89558 14.2195L9.79681 14.1456H9.91869L9.95796 14.0301L9.99609 14.1456H10.1232L10.0209 14.2189L10.059 14.3397L9.95796 14.2669L9.85977 14.3402V14.3397ZM8.27655 14.2906L8.31583 14.1716L8.21301 14.1011H8.34066L8.37648 13.9856L8.41518 14.1011H8.54109L8.43944 14.1704L8.47814 14.2906L8.37821 14.216L8.27655 14.2906ZM9.374 13.5073L9.39422 13.4426L9.33646 13.4005H9.40866L9.43465 13.3329L9.45545 13.4005H9.52707L9.46931 13.4426L9.48953 13.5073L9.43176 13.4663L9.374 13.5073ZM12.3452 13.4779L12.3845 13.3566L12.2869 13.2844H12.4082L12.4475 13.1688L12.4862 13.2844H12.6074L12.5098 13.3566L12.5491 13.4779L12.4475 13.4051L12.3469 13.4819L12.3452 13.4779ZM13.6737 12.4382L13.7026 12.3446L13.6206 12.2868H13.7205L13.7511 12.1898L13.784 12.2868H13.8857L13.8037 12.3446L13.8279 12.4422L13.75 12.3845L13.6726 12.4422L13.6737 12.4382ZM10.5229 12.9043L10.5621 12.7842L10.4599 12.7102H10.587L10.6251 12.5947L10.665 12.7102H10.7857L10.6875 12.7842L10.7221 12.9043L10.6251 12.8309L10.5229 12.9043Z" fill="white"/>
</g>
<defs>
<clipPath id="clip0_36_24">
<rect width="24.9994" height="25" fill="white"/>
</clipPath>
</defs>
</svg>
