<svg width="27" height="26" viewBox="0 0 27 26" fill="none" xmlns="http://www.w3.org/2000/svg">
<path d="M0.16748 24.3947V1.56867C0.16748 1.56867 0.19985 1.53638 0.205245 1.5202C0.299136 1.05919 0.560812 0.649428 0.939569 0.370344C1.31833 0.0912602 1.7872 -0.0374364 2.25533 0.00945153H24.1265C24.3897 -0.0035684 24.6528 0.0385188 24.8988 0.132998C25.1449 0.227477 25.3685 0.372308 25.5554 0.558167C25.7422 0.744026 25.8882 0.966986 25.9841 1.21252C26.0799 1.45804 26.1234 1.72078 26.1118 1.98409C26.1118 9.31043 26.1118 16.6402 26.1118 23.9738C26.1135 24.1929 26.0826 24.4112 26.0201 24.6213C25.8925 25.03 25.6309 25.3837 25.2776 25.6255C24.9242 25.8672 24.4997 25.9831 24.0725 25.954H1.95321C1.61062 25.9391 1.27865 25.8304 0.993333 25.6402C0.708012 25.45 0.480237 25.1855 0.334724 24.875C0.280774 24.7131 0.226825 24.5512 0.16748 24.3947ZM22.2868 22.0964C22.2868 21.9992 22.2868 21.9239 22.2868 21.8429C22.2868 19.6364 22.2868 17.4299 22.2868 15.2233C22.2805 14.4847 22.2228 13.7475 22.1141 13.0169C22.0669 12.4677 21.907 11.934 21.6443 11.4495C21.3816 10.9649 21.0218 10.5398 20.5874 10.2006C19.8703 9.72265 19.032 9.45871 18.1704 9.43982C17.3884 9.33033 16.5914 9.4471 15.8735 9.77595C15.1555 10.1048 14.5467 10.632 14.1188 11.2956C14.0768 11.3437 14.0298 11.3872 13.9786 11.4253V9.74197H10.2992V22.0964H14.1242V21.7513C14.1242 19.863 14.1242 17.9747 14.1242 16.0918C14.1259 15.6827 14.1493 15.2739 14.1944 14.8672C14.3292 13.718 14.9065 13.0115 15.883 12.8604C17.1346 12.6662 18.0841 13.0114 18.3269 14.549C18.3916 14.9431 18.4241 15.3418 18.424 15.7412C18.424 17.7373 18.424 19.7335 18.424 21.7297V22.0964H22.2868ZM4.06264 9.74197V22.1019H7.8391V9.74197H4.06264ZM5.97784 3.5865C5.53694 3.58437 5.10532 3.71306 4.73761 3.95635C4.3699 4.19964 4.08264 4.54653 3.91218 4.95316C3.74173 5.35978 3.69575 5.80774 3.78006 6.24052C3.86438 6.67329 4.07519 7.07141 4.38583 7.38431C4.69646 7.69721 5.09294 7.91089 5.52509 7.99835C5.95724 8.08581 6.40562 8.04309 6.81347 7.8756C7.22133 7.70811 7.57032 7.42333 7.81628 7.0574C8.06224 6.69147 8.1941 6.26073 8.19517 5.81982C8.19589 5.5254 8.13825 5.23386 8.02559 4.96185C7.91292 4.68984 7.74746 4.44274 7.53877 4.23506C7.33009 4.02737 7.08231 3.86329 6.80975 3.75194C6.5372 3.64058 6.24528 3.58437 5.95087 3.5865H5.97784Z" fill="#F2F2F2"/>
</svg>
